<mxfile host="app.diagrams.net" modified="2023-07-17T05:50:13.866Z" agent="Mozilla/5.0 (Windows NT 10.0; Win64; x64) AppleWebKit/537.36 (KHTML, like Gecko) Chrome/114.0.0.0 Safari/537.36 Edg/114.0.1823.82" version="21.6.2" etag="ZOd13lmMoJFkVPZe_GB2" type="github">
  <diagram name="Page-1" id="mv7DPdrEbFSLcEf9unp2">
    <mxGraphModel>
      <root>
        <mxCell id="0" />
        <mxCell id="1" parent="0" />
      </root>
    </mxGraphModel>
  </diagram>
</mxfile>
